<mxfile host="app.diagrams.net" modified="2022-10-17T19:38:14.254Z" agent="5.0 (Windows NT 10.0; Win64; x64) AppleWebKit/537.36 (KHTML, like Gecko) Chrome/106.0.0.0 Safari/537.36" etag="qUPVB0fQoHqFVJ0CBArQ" version="20.4.1" type="github">
  <diagram id="md3wHhNF5r_lteGIy4ko" name="Страница 1">
    <mxGraphModel dx="868" dy="482" grid="1" gridSize="10" guides="1" tooltips="1" connect="0" arrows="1" fold="1" page="1" pageScale="1" pageWidth="827" pageHeight="1169" math="0" shadow="0">
      <root>
        <mxCell id="0" />
        <mxCell id="1" parent="0" />
        <mxCell id="EDvxDZ3NjvZe8_H5tGJN-5" value="" style="edgeStyle=orthogonalEdgeStyle;rounded=0;orthogonalLoop=1;jettySize=auto;html=1;fontSize=16;" parent="1" source="EDvxDZ3NjvZe8_H5tGJN-2" target="EDvxDZ3NjvZe8_H5tGJN-3" edge="1">
          <mxGeometry relative="1" as="geometry" />
        </mxCell>
        <mxCell id="EDvxDZ3NjvZe8_H5tGJN-2" value="&lt;font style=&quot;vertical-align: inherit; font-size: 14px;&quot;&gt;&lt;font style=&quot;vertical-align: inherit; font-size: 14px;&quot;&gt;&lt;font style=&quot;vertical-align: inherit; font-size: 14px;&quot;&gt;&lt;font style=&quot;vertical-align: inherit; font-size: 14px;&quot;&gt;Старт&lt;/font&gt;&lt;/font&gt;&lt;/font&gt;&lt;/font&gt;" style="ellipse;whiteSpace=wrap;html=1;fillColor=#f8cecc;strokeColor=#b85450;" parent="1" vertex="1">
          <mxGeometry x="280" y="20" width="130" height="70" as="geometry" />
        </mxCell>
        <mxCell id="EDvxDZ3NjvZe8_H5tGJN-29" value="" style="edgeStyle=orthogonalEdgeStyle;rounded=0;orthogonalLoop=1;jettySize=auto;html=1;fontSize=16;" parent="1" source="EDvxDZ3NjvZe8_H5tGJN-3" target="EDvxDZ3NjvZe8_H5tGJN-27" edge="1">
          <mxGeometry relative="1" as="geometry" />
        </mxCell>
        <mxCell id="EDvxDZ3NjvZe8_H5tGJN-3" value="a=8&lt;br&gt;b=20&lt;br&gt;c=30&lt;br&gt;d=60" style="shape=parallelogram;perimeter=parallelogramPerimeter;whiteSpace=wrap;html=1;fixedSize=1;labelBackgroundColor=#FDBDFF;fontSize=14;fillColor=#e1d5e7;strokeColor=#9673a6;" parent="1" vertex="1">
          <mxGeometry x="246.25" y="150" width="197.5" height="100" as="geometry" />
        </mxCell>
        <mxCell id="EDvxDZ3NjvZe8_H5tGJN-34" value="" style="edgeStyle=orthogonalEdgeStyle;rounded=0;orthogonalLoop=1;jettySize=auto;html=1;fontSize=16;" parent="1" source="EDvxDZ3NjvZe8_H5tGJN-13" target="EDvxDZ3NjvZe8_H5tGJN-23" edge="1">
          <mxGeometry relative="1" as="geometry" />
        </mxCell>
        <mxCell id="EDvxDZ3NjvZe8_H5tGJN-13" value="Вывод mean" style="shape=document;whiteSpace=wrap;html=1;boundedLbl=1;labelBackgroundColor=none;fontSize=16;fillColor=#f8cecc;strokeColor=#b85450;" parent="1" vertex="1">
          <mxGeometry x="290" y="400" width="110" height="70" as="geometry" />
        </mxCell>
        <mxCell id="EDvxDZ3NjvZe8_H5tGJN-23" value="&lt;span style=&quot;font-size: 14px;&quot;&gt;Завершение&lt;/span&gt;" style="ellipse;whiteSpace=wrap;html=1;fillColor=#f8cecc;strokeColor=#b85450;" parent="1" vertex="1">
          <mxGeometry x="280" y="490" width="130" height="70" as="geometry" />
        </mxCell>
        <mxCell id="EDvxDZ3NjvZe8_H5tGJN-28" value="" style="edgeStyle=orthogonalEdgeStyle;rounded=0;orthogonalLoop=1;jettySize=auto;html=1;fontSize=16;" parent="1" source="EDvxDZ3NjvZe8_H5tGJN-27" target="EDvxDZ3NjvZe8_H5tGJN-13" edge="1">
          <mxGeometry relative="1" as="geometry" />
        </mxCell>
        <mxCell id="EDvxDZ3NjvZe8_H5tGJN-27" value="Mean=(a+b+c+d)/4" style="rounded=0;whiteSpace=wrap;html=1;labelBackgroundColor=none;fontSize=16;fillColor=#dae8fc;strokeColor=#6c8ebf;" parent="1" vertex="1">
          <mxGeometry x="255" y="290" width="180" height="60" as="geometry" />
        </mxCell>
      </root>
    </mxGraphModel>
  </diagram>
</mxfile>
